<svg width="50" height="50" viewBox="0 0 50 50" fill="none" xmlns="http://www.w3.org/2000/svg">
<path d="M25.0569 0H24.9431C11.1674 0 0 11.1674 0 24.9431V25.0569C0 38.8326 11.1674 50 24.9431 50H25.0569C38.8326 50 50 38.8326 50 25.0569V24.9431C50 11.1674 38.8326 0 25.0569 0Z" fill="#383D38"/>
<path d="M23.0652 25.9397C22.6308 25.3949 22.1333 24.978 21.5763 24.696C22.0685 24.3964 22.4924 24.0286 22.8428 23.5907C23.4331 22.8514 23.7327 21.9247 23.7327 20.8351C23.7327 19.926 23.4927 19.0904 23.0179 18.3529C22.545 17.6155 21.8408 17.0234 20.9246 16.5924C20.0277 16.1703 18.9469 15.9565 17.7154 15.9565H10.7102V34.0468H18.0377C19.2377 34.0468 20.3098 33.8278 21.2224 33.3969C22.1526 32.959 22.8778 32.3459 23.3753 31.5768C23.8746 30.8043 24.1286 29.9267 24.1286 28.9685C24.1286 27.8456 23.7712 26.8279 23.0652 25.9415V25.9397ZM19.3445 22.643C18.9119 22.9933 18.2795 23.172 17.4684 23.172H14.4379V19.164H17.4684C18.276 19.164 18.9049 19.3479 19.3375 19.7123C19.7527 20.0609 19.9542 20.5426 19.9542 21.1803C19.9542 21.8179 19.7545 22.3119 19.3445 22.643ZM14.4379 26.3812H17.6909C18.5422 26.3812 19.1974 26.5879 19.6931 27.0135C20.1679 27.4217 20.3991 27.963 20.3991 28.6707C20.3991 29.3784 20.1854 29.8776 19.7439 30.2508C19.2867 30.6379 18.6298 30.8341 17.789 30.8341H14.4379V26.3812Z" fill="white"/>
<path d="M38.4403 22.9145C37.8763 21.8949 37.0775 21.0909 36.065 20.5269C35.0542 19.9628 33.8858 19.6772 32.5965 19.6772C31.3072 19.6772 30.0512 19.9715 29.016 20.5514C27.9789 21.1329 27.1626 21.9685 26.5916 23.0389C26.0205 24.1074 25.7314 25.3617 25.7314 26.7666C25.7314 28.1715 26.0292 29.4274 26.6178 30.4943C27.2064 31.5628 28.0297 32.4037 29.0668 32.9922C30.102 33.5808 31.2897 33.8786 32.5983 33.8786C34.2046 33.8786 35.5692 33.4705 36.6553 32.6664C37.7414 31.8624 38.5017 30.8148 38.9168 29.5553L38.9466 29.466H35.7689L35.7497 29.5045C35.1383 30.743 34.0785 31.3701 32.5965 31.3701C31.5647 31.3701 30.6819 31.0426 29.9724 30.3997C29.2805 29.7708 28.8828 28.93 28.79 27.8982H39.1813L39.1901 27.8404C39.2567 27.4252 39.2899 26.9557 39.2899 26.446C39.2899 25.1217 39.0044 23.934 38.4403 22.9145ZM30.0215 23.0967C30.6976 22.4923 31.5227 22.1875 32.4722 22.1875C33.5214 22.1875 34.4131 22.4976 35.1225 23.1107C35.8127 23.7063 36.1788 24.5068 36.2104 25.4878H28.8198C28.9599 24.491 29.3646 23.687 30.0232 23.0984L30.0215 23.0967Z" fill="white"/>
<path d="M35.9703 16.3735H29.0492V18.0136H35.9703V16.3735Z" fill="white"/>
</svg>
