<svg width="50" height="50" viewBox="0 0 50 50" fill="none" xmlns="http://www.w3.org/2000/svg">
<path d="M25.0569 0H24.9431C11.1674 0 0 11.1674 0 24.9431V25.0569C0 38.8326 11.1674 50 24.9431 50H25.0569C38.8326 50 50 38.8326 50 25.0569V24.9431C50 11.1674 38.8326 0 25.0569 0Z" fill="#383D38"/>
<path d="M11.9242 16.6189C11.2655 16.0075 10.938 15.2508 10.938 14.3504C10.938 13.45 11.2673 12.6599 11.9242 12.0468C12.5829 11.4355 13.4307 11.1289 14.4695 11.1289C15.5083 11.1289 16.3228 11.4355 16.9797 12.0468C17.6384 12.6582 17.966 13.4272 17.966 14.3504C17.966 15.2735 17.6366 16.0075 16.9797 16.6189C16.3211 17.2302 15.4855 17.5368 14.4695 17.5368C13.4535 17.5368 12.5829 17.2302 11.9242 16.6189ZM17.4124 20.1259V38.8695H11.4898V20.1259H17.4124Z" fill="#FEFFFC"/>
<path d="M37.1282 21.9771C38.4193 23.3785 39.0639 25.3019 39.0639 27.7508V38.5381H33.4391V28.5111C33.4391 27.2761 33.1185 26.3162 32.4792 25.633C31.8398 24.9498 30.9779 24.6065 29.8988 24.6065C28.8198 24.6065 27.9579 24.948 27.3185 25.633C26.6791 26.3162 26.3585 27.2761 26.3585 28.5111V38.5381H20.7004V20.0729H26.3585V22.5219C26.9314 21.7056 27.7039 21.0609 28.6744 20.5862C29.6448 20.1115 30.7362 19.875 31.9501 19.875C34.1118 19.875 35.839 20.5757 37.1282 21.9753V21.9771Z" fill="#FEFFFC"/>
</svg>
