<svg width="800" height="349" viewBox="0 0 800 349" fill="none" xmlns="http://www.w3.org/2000/svg">
<path opacity="0.4" d="M0 284.5C47.1258 254.994 218.143 182.301 318.585 217.708C444.139 261.968 575.928 118.905 595.719 75.924C618.191 27.118 688.564 -15.0227 744.366 6.07771C789.007 22.958 800.722 38.6718 801 44.4186" stroke="#BBFF4D"/>
<path opacity="0.5" d="M-1 298.5C46.1846 268.983 222.932 194.079 323.5 229.5C449.21 273.776 571.364 134.704 600.979 87.6619C621.646 54.8332 688.424 -1.13622 744.295 19.9722C788.992 36.8589 800.722 52.5787 801 58.3277" stroke="#BBFF4D"/>
<path opacity="0.7" d="M-2 312.5C45.3023 282.975 207.681 203.07 308.5 238.5C434.523 282.788 542.452 176.058 585 125C625 77.0001 689.143 12.7861 745.154 33.9C789.962 50.7911 801.721 66.515 802 72.2655" stroke="#BBFF4D" stroke-width="2"/>
<path opacity="0.9" d="M-1 329.5C46.1846 299.975 205.932 217.57 306.5 253C432.21 297.288 554.601 199.795 593.5 136C618.5 95.0002 688.424 29.7859 744.295 50.8998C788.992 67.7909 800.722 83.5147 801 89.2653" stroke="#BBFF4D" stroke-width="2"/>
<path opacity="0.9" d="M-4 347.5C43.42 317.983 208.583 223.533 311.348 265.522C435.24 316.143 579.343 197.539 609.064 134.556C622.155 106.814 688.863 47.8641 745.012 68.9725C789.932 85.8592 801.721 101.579 802 107.328" stroke="#BBFF4D" stroke-width="3"/>
</svg>
