<svg width="375" height="205" viewBox="0 0 375 205" fill="none" xmlns="http://www.w3.org/2000/svg">
<path opacity="0.4" d="M-5 162.5C17.651 145.572 75.0224 116.795 123.3 137.108C183.647 162.5 240.957 73.5341 254.747 54.2148C272.2 29.7632 325.958 -9.3354 352.779 2.76984C374.236 12.454 379.867 21.469 380 24.7659" stroke="#BBFF4D"/>
<path opacity="0.5" d="M-6 169.5C16.651 152.546 74.0224 123.723 122.3 144.068C182.647 169.5 242.628 82.7727 255.8 63.0428C269.147 43.0509 324.958 -2.607 351.779 9.51737C373.236 19.2169 378.867 28.2461 379 31.5482" stroke="#BBFF4D"/>
<path opacity="0.7" d="M-6 179.5C16.651 162.554 74.0224 133.745 122.3 154.08C182.647 179.5 244.969 88.3944 255.287 70.5949C266.58 51.1119 324.958 7.47363 351.779 19.5923C373.236 29.2873 378.867 38.3123 379 41.6129" stroke="#BBFF4D"/>
<path opacity="0.9" d="M-6 191.5C16.651 174.56 74.0224 145.761 122.3 166.09C182.647 191.5 244.87 100.904 254.773 81.6359C265.04 61.6607 324.958 19.5364 351.779 31.6507C373.236 41.3421 378.867 50.3638 379 53.6632" stroke="#BBFF4D" stroke-width="2"/>
<path opacity="0.9" d="M-6 203.5C16.651 186.546 74.0224 157.723 122.3 178.068C182.647 203.5 245.9 115.279 255.504 96.5989C265.553 77.0514 324.958 31.3937 351.779 43.518C373.236 53.2175 378.867 62.2467 379 65.5488" stroke="#BBFF4D" stroke-width="3"/>
</svg>
