<svg width="1200" height="503" viewBox="0 0 1200 503" fill="none" xmlns="http://www.w3.org/2000/svg">
<path opacity="0.4" d="M-3 399.5C68.0711 357.749 248.083 286.773 399.562 336.874C588.911 399.5 788.113 184.603 817.511 136.252C847.953 86.1809 1035.43 -24.3191 1119.59 5.53761C1186.91 29.4229 1204.58 51.6576 1205 59.7893" stroke="#BBFF4D"/>
<path opacity="0.5" d="M-5 416.5C66.0711 374.759 246.083 303.798 397.562 353.888C586.911 416.5 779.389 212.386 815.511 153.311C847.647 100.754 1033.43 -7.22281 1117.59 22.6271C1184.91 46.507 1202.58 68.7366 1203 76.8665" stroke="#BBFF4D" stroke-width="2"/>
<path opacity="0.7" d="M-5 441.5C66.0711 399.735 246.083 328.734 397.562 378.852C586.911 441.5 780.703 239.048 815.511 178.162C856.103 107.156 1033.43 17.5362 1117.59 47.4031C1184.91 71.2965 1202.58 93.5388 1203 101.673" stroke="#BBFF4D" stroke-width="2"/>
<path opacity="0.9" d="M-5 471.5C66.0711 429.695 246.083 358.627 397.562 408.793C586.911 471.5 772.147 275.86 815.511 207.911C855.456 145.319 1033.43 47.1326 1117.59 77.0279C1184.91 100.944 1202.58 123.208 1203 131.35" stroke="#BBFF4D" stroke-width="3"/>
<path opacity="0.9" d="M-5 500.5C66.0711 458.623 246.083 387.433 397.562 437.685C586.911 500.5 775.309 297.668 818.957 230.519C860.23 167.024 1033.43 75.4035 1117.59 105.35C1184.91 129.308 1202.58 151.609 1203 159.765" stroke="#BBFF4D" stroke-width="4"/>
</svg>
