<svg width="1920" height="685" viewBox="0 0 1920 685" fill="none" xmlns="http://www.w3.org/2000/svg">
<path opacity="0.4" d="M-1 552.798C112.167 495.465 398.8 397.998 640 466.798C941.5 552.798 1188.5 342.322 1305.5 191.298C1404.26 63.8148 1652.5 -29.2019 1786.5 11.7981C1893.7 44.5981 1921.83 75.1314 1922.5 86.298" stroke="#BBFF4D" stroke-width="4"/>
<path opacity="0.5" d="M-1 575.534C112.167 518.2 398.8 420.734 640 489.534C941.5 575.534 1191.41 363.805 1304 225.822C1402.5 105.111 1652.5 -6.46633 1786.5 34.5337C1893.7 67.3337 1921.83 97.867 1922.5 109.034" stroke="#BBFF4D" stroke-width="4"/>
<path opacity="0.7" d="M-1 610.534C112.167 553.2 398.8 455.734 640 524.534C941.5 610.534 1200.14 392.654 1308.5 251.322C1404.5 126.111 1652.5 28.5337 1786.5 69.5337C1893.7 102.334 1921.83 132.867 1922.5 144.034" stroke="#BBFF4D" stroke-width="4"/>
<path opacity="0.9" d="M-1 650.534C112.167 593.2 398.8 495.734 640 564.534C941.5 650.534 1207.33 425.354 1318 285.822C1418.5 159.111 1652.5 68.5336 1786.5 109.534C1893.7 142.334 1921.83 172.867 1922.5 184.034" stroke="#BBFF4D" stroke-width="4"/>
<path opacity="0.9" d="M-1 682.3C112.167 624.967 398.8 527.5 640 596.3C941.5 682.3 1207.33 457.12 1318 317.588C1418.5 190.877 1652.5 100.3 1786.5 141.3C1893.7 174.1 1921.83 204.633 1922.5 215.8" stroke="#BBFF4D" stroke-width="5"/>
</svg>
