<svg width="60" height="60" viewBox="0 0 60 60" fill="none" xmlns="http://www.w3.org/2000/svg">
<path d="M3.91333 53.7084H32.3016V37.3401H45.9332V53.7084H56.0866V26.0872H3.91333V53.7084ZM14.1433 37.3401H22.3275V45.5242H14.1433V37.3401Z" fill="#A5A5A5"/>
<path d="M36.4261 43.1912C35.7374 43.1912 35.1792 43.7501 35.1792 44.4385V48.594C35.1792 49.2822 35.7375 49.8404 36.4261 49.8404C37.1144 49.8404 37.6726 49.2822 37.6726 48.594V44.4385C37.6726 43.7501 37.1144 43.1912 36.4261 43.1912Z" fill="#A5A5A5"/>
<path d="M26.9653 6.29175H18.5851L16.8723 23.0182H26.5102L26.9653 6.29175Z" fill="#A5A5A5"/>
<path d="M43.128 23.0182L41.415 6.29175H33.0347L33.4899 23.0182H43.128Z" fill="#A5A5A5"/>
<path d="M59.9999 23.0182L56.0866 6.29175H47.4851L50.1082 23.0182H59.9999Z" fill="#A5A5A5"/>
<path d="M12.5149 6.29175H3.91336L0 23.0182H9.89168L12.5149 6.29175Z" fill="#A5A5A5"/>
</svg>
