<svg width="50" height="50" viewBox="0 0 50 50" fill="none" xmlns="http://www.w3.org/2000/svg">
<path d="M25.0569 0H24.9431C11.1674 0 0 11.1674 0 24.9431V25.0569C0 38.8326 11.1674 50 24.9431 50H25.0569C38.8326 50 50 38.8326 50 25.0569V24.9431C50 11.1674 38.8326 0 25.0569 0Z" fill="#383D38"/>
<path d="M9.46983 24.1475C9.5399 24.1124 9.61 24.0791 9.67832 24.0476C10.866 23.4976 12.0694 22.9826 13.2711 22.4675C13.336 22.4675 13.4445 22.3922 13.5058 22.3677C13.5987 22.3274 13.6915 22.2889 13.7844 22.2486C13.9631 22.1715 14.1418 22.0962 14.3187 22.0191C14.676 21.8667 15.0316 21.7143 15.389 21.5619L17.5278 20.6457C18.9538 20.0361 20.3815 19.4248 21.8074 18.8152C23.2333 18.2055 24.661 17.5942 26.0869 16.9846C27.5128 16.375 28.9405 15.7636 30.3664 15.154C31.7923 14.5444 33.22 13.933 34.6459 13.3234C34.963 13.1868 35.3063 12.9836 35.6462 12.924C35.9317 12.8732 36.2102 12.7751 36.4975 12.7208C37.0423 12.6175 37.6431 12.5755 38.1651 12.8014C38.3456 12.8803 38.512 12.9906 38.6504 13.129C39.3125 13.7842 39.2197 14.8597 39.0796 15.7811C38.1038 22.203 37.1281 28.6267 36.1506 35.0486C36.0175 35.9297 35.8353 36.8966 35.1399 37.4537C34.5513 37.9249 33.714 37.9775 32.987 37.7778C32.26 37.5763 31.6189 37.1542 30.99 36.739C28.3817 35.0118 25.7716 33.2845 23.1632 31.5573C22.5431 31.1474 21.8529 30.6114 21.8599 29.8669C21.8635 29.4185 22.1314 29.0191 22.4047 28.6635C24.6715 25.7065 27.942 23.6745 30.3751 20.8542C30.7185 20.4565 30.9883 19.7383 30.517 19.5088C30.2368 19.3722 29.9144 19.5579 29.6587 19.7348C26.4425 21.9683 23.2281 24.2035 20.0118 26.437C18.9626 27.1657 17.8625 27.9155 16.5977 28.0941C15.4661 28.2553 14.3274 27.94 13.2326 27.6177C12.3147 27.3479 11.3985 27.0711 10.4858 26.7856C10.0006 26.6349 9.49961 26.472 9.12474 26.1304C8.74986 25.7888 8.53443 25.2143 8.7604 24.7588C8.90229 24.4733 9.17732 24.2928 9.46636 24.1457L9.46983 24.1475Z" fill="#FEFFFC"/>
</svg>
