<svg width="52" height="33" viewBox="0 0 52 33" fill="none" xmlns="http://www.w3.org/2000/svg">
<g opacity="0.4">
<path d="M16.2465 33C13.069 33 10.2502 32.3538 7.79013 31.0615C5.36426 29.7691 3.45089 27.8907 2.05003 25.4262C0.683345 22.9617 0 19.9863 0 16.5C0 13.0137 0.683345 10.0383 2.05003 7.57377C3.45089 5.10929 5.36426 3.23087 7.79013 1.93852C10.2502 0.646175 13.069 0 16.2465 0C19.4241 0 22.2258 0.646175 24.6517 1.93852C27.1117 3.23087 29.0251 5.10929 30.3918 7.57377C31.7926 10.0383 32.493 13.0137 32.493 16.5C32.493 19.9863 31.7926 22.9617 30.3918 25.4262C29.0251 27.8907 27.1117 29.7691 24.6517 31.0615C22.2258 32.3538 19.4241 33 16.2465 33ZM16.2465 24.4795C17.0324 24.4795 17.7328 24.2391 18.3478 23.7582C18.9628 23.2773 19.4412 22.4508 19.7828 21.2787C20.1587 20.1066 20.3466 18.5137 20.3466 16.5C20.3466 14.4563 20.1587 12.8634 19.7828 11.7213C19.4412 10.5492 18.9628 9.72268 18.3478 9.2418C17.7328 8.76093 17.0324 8.52049 16.2465 8.52049C15.4607 8.52049 14.7602 8.76093 14.1452 9.2418C13.5302 9.72268 13.0348 10.5492 12.659 11.7213C12.3173 12.8634 12.1465 14.4563 12.1465 16.5C12.1465 18.5137 12.3173 20.1066 12.659 21.2787C13.0348 22.4508 13.5302 23.2773 14.1452 23.7582C14.7602 24.2391 15.4607 24.4795 16.2465 24.4795Z" fill="#BBFF4D"/>
<path d="M39.9048 32.2787V4.41803L45.0811 8.7459H33.7547V0.72131H52V32.2787H39.9048Z" fill="#BBFF4D"/>
</g>
</svg>
