<svg width="56" height="33" viewBox="0 0 56 33" fill="none" xmlns="http://www.w3.org/2000/svg">
<g opacity="0.4">
<path d="M14.286 33C11.4919 33 9.01324 32.3538 6.85006 31.0615C4.71693 29.7691 3.03446 27.8907 1.80265 25.4262C0.600882 22.9617 0 19.9863 0 16.5C0 13.0137 0.600882 10.0383 1.80265 7.57377C3.03446 5.10929 4.71693 3.23087 6.85006 1.93852C9.01324 0.646175 11.4919 0 14.286 0C17.0801 0 19.5437 0.646175 21.6768 1.93852C23.84 3.23087 25.5225 5.10929 26.7242 7.57377C27.9561 10.0383 28.572 13.0137 28.572 16.5C28.572 19.9863 27.9561 22.9617 26.7242 25.4262C25.5225 27.8907 23.84 29.7691 21.6768 31.0615C19.5437 32.3538 17.0801 33 14.286 33ZM14.286 24.4795C14.977 24.4795 15.5929 24.2391 16.1337 23.7582C16.6745 23.2773 17.0951 22.4508 17.3955 21.2787C17.726 20.1066 17.8913 18.5137 17.8913 16.5C17.8913 14.4563 17.726 12.8634 17.3955 11.7213C17.0951 10.5492 16.6745 9.72268 16.1337 9.2418C15.5929 8.76093 14.977 8.52049 14.286 8.52049C13.595 8.52049 12.9791 8.76093 12.4383 9.2418C11.8975 9.72268 11.4618 10.5492 11.1313 11.7213C10.8309 12.8634 10.6807 14.4563 10.6807 16.5C10.6807 18.5137 10.8309 20.1066 11.1313 21.2787C11.4618 22.4508 11.8975 23.2773 12.4383 23.7582C12.9791 24.2391 13.595 24.4795 14.286 24.4795Z" fill="#BBFF4D"/>
<path d="M30.7179 32.2787V25.7418L42.1196 15.1926C42.8407 14.5014 43.3664 13.9003 43.6969 13.3893C44.0575 12.8784 44.2978 12.4276 44.418 12.0369C44.5382 11.6161 44.5983 11.2254 44.5983 10.8648C44.5983 10.0833 44.3429 9.48224 43.8321 9.06147C43.3214 8.61065 42.5553 8.38525 41.5338 8.38525C40.6024 8.38525 39.7161 8.64071 38.8749 9.15164C38.0336 9.63251 37.3726 10.3538 36.8919 11.3156L28.8702 7.30328C30.0118 5.13934 31.7244 3.38115 34.0077 2.02869C36.2911 0.67623 39.1302 0 42.5252 0C45.0189 0 47.2271 0.405738 49.1499 1.21721C51.0728 2.02869 52.575 3.17076 53.6566 4.64344C54.7381 6.11612 55.2789 7.85929 55.2789 9.87295C55.2789 10.8948 55.1437 11.9167 54.8733 12.9385C54.633 13.9604 54.1222 15.0423 53.3411 16.1844C52.5599 17.2964 51.4032 18.5437 49.871 19.9262L41.3084 27.7254L39.641 24.0287H56V32.2787H30.7179Z" fill="#BBFF4D"/>
</g>
</svg>
