<svg width="55" height="32" viewBox="0 0 55 32" fill="none" xmlns="http://www.w3.org/2000/svg">
<g opacity="0.4">
<path d="M14.0196 32C11.2776 32 8.84517 31.3734 6.72233 30.1202C4.62897 28.867 2.97787 27.0455 1.76903 24.6557C0.589678 22.2659 0 19.3807 0 16C0 12.6193 0.589678 9.73406 1.76903 7.34426C2.97787 4.95446 4.62897 3.13297 6.72233 1.87978C8.84517 0.626594 11.2776 0 14.0196 0C16.7616 0 19.1793 0.626594 21.2726 1.87978C23.3955 3.13297 25.0466 4.95446 26.2259 7.34426C27.4348 9.73406 28.0392 12.6193 28.0392 16C28.0392 19.3807 27.4348 22.2659 26.2259 24.6557C25.0466 27.0455 23.3955 28.867 21.2726 30.1202C19.1793 31.3734 16.7616 32 14.0196 32ZM14.0196 23.7377C14.6977 23.7377 15.3021 23.5046 15.8328 23.0383C16.3636 22.5719 16.7763 21.7705 17.0712 20.6339C17.3955 19.4973 17.5577 17.9526 17.5577 16C17.5577 14.0182 17.3955 12.4736 17.0712 11.3661C16.7763 10.2295 16.3636 9.42805 15.8328 8.96175C15.3021 8.49545 14.6977 8.2623 14.0196 8.2623C13.3415 8.2623 12.737 8.49545 12.2063 8.96175C11.6756 9.42805 11.2481 10.2295 10.9238 11.3661C10.6289 12.4736 10.4815 14.0182 10.4815 16C10.4815 17.9526 10.6289 19.4973 10.9238 20.6339C11.2481 21.7705 11.6756 22.5719 12.2063 23.0383C12.737 23.5046 13.3415 23.7377 14.0196 23.7377Z" fill="#BBFF4D"/>
<path d="M40.8477 32C38.7249 32 36.5726 31.7668 34.3908 31.3005C32.209 30.8342 30.2925 30.1494 28.6414 29.2459L32.1795 21.6393C33.5062 22.3971 34.892 22.9654 36.3367 23.3443C37.8109 23.694 39.1966 23.8689 40.4939 23.8689C41.6733 23.8689 42.6315 23.6794 43.3686 23.3005C44.1352 22.8925 44.5185 22.2951 44.5185 21.5082C44.5185 20.8379 44.2384 20.3279 43.6782 19.9781C43.118 19.5993 42.1745 19.4098 40.8477 19.4098H36.7347V13.071L44.7396 5.02732L45.6684 8.48088H30.2335V0.699452H53.3194V7.03825L45.3145 15.082L40.317 12.2842H43.059C46.9509 12.2842 49.914 13.1439 51.9484 14.8634C53.9828 16.5829 55 18.7978 55 21.5082C55 23.2568 54.4988 24.9326 53.4963 26.5355C52.5234 28.1384 50.9902 29.4499 48.8968 30.4699C46.833 31.49 44.1499 32 40.8477 32Z" fill="#BBFF4D"/>
</g>
</svg>
