<svg width="62" height="34" viewBox="0 0 62 34" fill="none" xmlns="http://www.w3.org/2000/svg">
<g opacity="0.4">
<path d="M14.3315 34C11.5285 34 9.04197 33.3342 6.8719 32.0027C4.73196 30.6712 3.04413 28.7359 1.80839 26.1967C0.602798 23.6576 0 20.592 0 17C0 13.408 0.602798 10.3424 1.80839 7.80328C3.04413 5.26412 4.73196 3.32878 6.8719 1.99727C9.04197 0.665756 11.5285 0 14.3315 0C17.1345 0 19.606 0.665756 21.7459 1.99727C23.916 3.32878 25.6038 5.26412 26.8094 7.80328C28.0452 10.3424 28.663 13.408 28.663 17C28.663 20.592 28.0452 23.6576 26.8094 26.1967C25.6038 28.7359 23.916 30.6712 21.7459 32.0027C19.606 33.3342 17.1345 34 14.3315 34ZM14.3315 25.2213C15.0247 25.2213 15.6426 24.9736 16.1851 24.4781C16.7276 23.9827 17.1496 23.1311 17.451 21.9235C17.7825 20.7158 17.9483 19.0747 17.9483 17C17.9483 14.8944 17.7825 13.2532 17.451 12.0765C17.1496 10.8689 16.7276 10.0173 16.1851 9.52186C15.6426 9.02641 15.0247 8.77869 14.3315 8.77869C13.6383 8.77869 13.0204 9.02641 12.4779 9.52186C11.9354 10.0173 11.4984 10.8689 11.1668 12.0765C10.8654 13.2532 10.7147 14.8944 10.7147 17C10.7147 19.0747 10.8654 20.7158 11.1668 21.9235C11.4984 23.1311 11.9354 23.9827 12.4779 24.4781C13.0204 24.9736 13.6383 25.2213 14.3315 25.2213Z" fill="#BBFF4D"/>
<path d="M31.0313 27.6831V20.7158L44.4586 0.743168H55.3994L42.4694 20.7158L37.4963 19.1831H62V27.6831H31.0313ZM47.4424 33.2568V27.6831L47.7589 19.1831V14.2131H57.7955V33.2568H47.4424Z" fill="#BBFF4D"/>
</g>
</svg>
