<svg width="149" height="60" viewBox="0 0 149 60" fill="none" xmlns="http://www.w3.org/2000/svg">
<path d="M41.0372 59C46.4153 57.419 62.1092 54.1226 75.2913 52.5311C88.4735 50.9396 104.279 47.9902 113.725 46.0171C123.17 44.0441 125.775 43.1366 129.201 41.5347C142.843 35.1574 146.692 29.3868 147.844 25.9459C148.197 24.8918 147.934 23.2132 147.239 21.4876C145.648 17.5346 140.249 13.8083 132.815 9.57685C128.931 7.36649 124.512 6.02597 117.151 4.52725C109.79 3.02852 99.5423 1.6673 90.0077 1.19293C80.4731 0.718563 71.9623 1.1723 64.3646 1.97323C56.7669 2.77415 50.3403 3.90851 42.861 5.96753C35.3818 8.02656 27.0446 10.9759 20.4917 13.8565C9.24074 18.8022 5.5492 21.8053 4.58601 22.8331C3.62309 23.8606 1.79092 26.3825 1.26458 28.3212C0.475983 31.2259 1.6067 33.9449 2.65674 35.3164C4.94502 38.3053 7.91749 39.9054 15.5125 44.24C19.3378 46.4231 25.6972 48.5677 40.0346 51.8952C54.372 55.2226 71.2062 54.4629 83.4641 54.4629C90.6348 54.4629 96.9186 54.4629 97.8055 54.5764" stroke="#BBFF4D" stroke-width="2" stroke-linecap="round"/>
<path d="M36.7966 40L47.2006 16.672L48.4246 18.76H34.1326L36.3646 16.492V23.044H32.0086V14.8H51.5926V17.932L41.8006 40H36.7966Z" fill="white"/>
<path d="M63.9232 40.36C61.9552 40.36 60.0712 40.084 58.2712 39.532C56.4712 38.956 55.0432 38.224 53.9872 37.336L55.6072 33.7C56.6152 34.492 57.8632 35.152 59.3512 35.68C60.8392 36.208 62.3632 36.472 63.9232 36.472C65.2432 36.472 66.3112 36.328 67.1272 36.04C67.9432 35.752 68.5432 35.368 68.9272 34.888C69.3112 34.384 69.5032 33.82 69.5032 33.196C69.5032 32.428 69.2272 31.816 68.6752 31.36C68.1232 30.88 67.4032 30.508 66.5152 30.244C65.6512 29.956 64.6792 29.692 63.5992 29.452C62.5432 29.212 61.4752 28.936 60.3952 28.624C59.3392 28.288 58.3672 27.868 57.4792 27.364C56.6152 26.836 55.9072 26.14 55.3552 25.276C54.8032 24.412 54.5272 23.308 54.5272 21.964C54.5272 20.596 54.8872 19.348 55.6072 18.22C56.3512 17.068 57.4672 16.156 58.9552 15.484C60.4672 14.788 62.3752 14.44 64.6792 14.44C66.1912 14.44 67.6912 14.632 69.1792 15.016C70.6672 15.4 71.9632 15.952 73.0672 16.672L71.5912 20.308C70.4632 19.636 69.2992 19.144 68.0992 18.832C66.8992 18.496 65.7472 18.328 64.6432 18.328C63.3472 18.328 62.2912 18.484 61.4752 18.796C60.6832 19.108 60.0952 19.516 59.7112 20.02C59.3512 20.524 59.1712 21.1 59.1712 21.748C59.1712 22.516 59.4352 23.14 59.9632 23.62C60.5152 24.076 61.2232 24.436 62.0872 24.7C62.9752 24.964 63.9592 25.228 65.0392 25.492C66.1192 25.732 67.1872 26.008 68.2432 26.32C69.3232 26.632 70.2952 27.04 71.1592 27.544C72.0472 28.048 72.7552 28.732 73.2832 29.596C73.8352 30.46 74.1112 31.552 74.1112 32.872C74.1112 34.216 73.7392 35.464 72.9952 36.616C72.2752 37.744 71.1592 38.656 69.6472 39.352C68.1352 40.024 66.2272 40.36 63.9232 40.36Z" fill="white"/>
<path d="M78.3198 40V20.776H82.8198V40H78.3198ZM80.5878 17.608C79.7478 17.608 79.0518 17.344 78.4998 16.816C77.9718 16.288 77.7078 15.652 77.7078 14.908C77.7078 14.14 77.9718 13.504 78.4998 13C79.0518 12.472 79.7478 12.208 80.5878 12.208C81.4278 12.208 82.1118 12.46 82.6398 12.964C83.1918 13.444 83.4678 14.056 83.4678 14.8C83.4678 15.592 83.2038 16.264 82.6758 16.816C82.1478 17.344 81.4518 17.608 80.5878 17.608Z" fill="white"/>
<path d="M95.9621 40.252C93.8501 40.252 92.2181 39.712 91.0661 38.632C89.9141 37.528 89.3381 35.908 89.3381 33.772V16.528H93.8381V33.664C93.8381 34.576 94.0661 35.284 94.5221 35.788C95.0021 36.292 95.6621 36.544 96.5021 36.544C97.5101 36.544 98.3501 36.28 99.0221 35.752L100.282 38.956C99.7541 39.388 99.1061 39.712 98.3381 39.928C97.5701 40.144 96.7781 40.252 95.9621 40.252ZM86.1701 24.52V20.92H98.9861V24.52H86.1701Z" fill="white"/>
<path d="M112.387 40.252C110.251 40.252 108.379 39.832 106.771 38.992C105.187 38.128 103.951 36.952 103.063 35.464C102.199 33.976 101.767 32.284 101.767 30.388C101.767 28.468 102.187 26.776 103.027 25.312C103.891 23.824 105.067 22.66 106.555 21.82C108.067 20.98 109.783 20.56 111.703 20.56C113.575 20.56 115.243 20.968 116.707 21.784C118.171 22.6 119.323 23.752 120.163 25.24C121.003 26.728 121.423 28.48 121.423 30.496C121.423 30.688 121.411 30.904 121.387 31.144C121.387 31.384 121.375 31.612 121.351 31.828H105.331V28.84H118.975L117.211 29.776C117.235 28.672 117.007 27.7 116.527 26.86C116.047 26.02 115.387 25.36 114.547 24.88C113.731 24.4 112.783 24.16 111.703 24.16C110.599 24.16 109.627 24.4 108.787 24.88C107.971 25.36 107.323 26.032 106.843 26.896C106.387 27.736 106.159 28.732 106.159 29.884V30.604C106.159 31.756 106.423 32.776 106.951 33.664C107.479 34.552 108.223 35.236 109.183 35.716C110.143 36.196 111.247 36.436 112.495 36.436C113.575 36.436 114.547 36.268 115.411 35.932C116.275 35.596 117.043 35.068 117.715 34.348L120.127 37.12C119.263 38.128 118.171 38.908 116.851 39.46C115.555 39.988 114.067 40.252 112.387 40.252Z" fill="white"/>
</svg>
