<svg width="60" height="60" viewBox="0 0 60 60" fill="none" xmlns="http://www.w3.org/2000/svg">
<path d="M50.2188 4C41.6424 4 30.1344 9.884 22.4064 20H16C11.3708 20 8.71759 23.4552 6.89079 27.1092L4.44519 32H10.2188H16L22 38L28 44V49.7812V55.5548L32.8908 53.1096C36.5448 51.2824 40 48.6292 40 44V37.5936C50.116 29.8656 56 18.3576 56 9.7812V4H50.2188ZM40 16C42.2092 16 44 17.7908 44 20C44 22.2092 42.2092 24 40 24C37.7908 24 36 22.2092 36 20C36 17.7908 37.7908 16 40 16ZM14 40L12 42C9.11119 44.8888 7.99999 52 7.99999 52C7.99999 52 14.792 51.208 18 48L20 46L14 40Z" fill="#A5A5A5"/>
</svg>
